<?xml version="1.0" encoding="UTF-8" standalone="no"?>
<!-- Generator: Adobe Illustrator 15.1.0, SVG Export Plug-In . SVG Version: 6.00 Build 0)  -->
<svg xmlns:dc="http://purl.org/dc/elements/1.1/" xmlns:cc="http://creativecommons.org/ns#" xmlns:rdf="http://www.w3.org/1999/02/22-rdf-syntax-ns#" xmlns:svg="http://www.w3.org/2000/svg" xmlns="http://www.w3.org/2000/svg" xmlns:sodipodi="http://sodipodi.sourceforge.net/DTD/sodipodi-0.dtd" xmlns:inkscape="http://www.inkscape.org/namespaces/inkscape" version="1.1" id="Layer_1" x="0px" y="0px" width="32px" height="32px" viewBox="0 0 32 32" enable-background="new 0 0 32 32" xml:space="preserve" inkscape:version="0.48.3.1 r9886" sodipodi:docname="WMF-Agora-Settings_000000.svg"><metadata id="metadata7"><rdf:RDF><cc:Work rdf:about=""><dc:format>image/svg+xml</dc:format><dc:type rdf:resource="http://purl.org/dc/dcmitype/StillImage"/><dc:title/></cc:Work></rdf:RDF></metadata><defs id="defs5"><marker style="overflow:visible" id="Arrow2Mend-5" refX="0" refY="0" orient="auto" inkscape:stockid="Arrow2Mend"><path inkscape:connector-curvature="0" transform="scale(-0.6,-0.6)" d="M 8.7185878,4.0337352 -2.2072895,0.01601326 8.7185884,-4.0017078 c -1.7454984,2.3720609 -1.7354408,5.6174519 -6e-7,8.035443 z" style="font-size:12px;fill-rule:evenodd;stroke-width:0.625;stroke-linejoin:round" id="path45132-1"/></marker><marker style="overflow:visible" id="DotM-00" refX="0" refY="0" orient="auto" inkscape:stockid="DotM"><path inkscape:connector-curvature="0" transform="matrix(0.4,0,0,0.4,2.96,0.4)" style="fill-rule:evenodd;stroke:#000000;stroke-width:1pt;marker-start:none;marker-end:none" d="m -2.5,-1 c 0,2.76 -2.24,5 -5,5 -2.76,0 -5,-2.24 -5,-5 0,-2.76 2.24,-5 5,-5 2.76,0 5,2.24 5,5 z" id="path14329-2"/></marker><marker style="overflow:visible" id="Arrow2Mend-07" refX="0" refY="0" orient="auto" inkscape:stockid="Arrow2Mend"><path inkscape:connector-curvature="0" transform="scale(-0.6,-0.6)" d="M 8.7185878,4.0337352 -2.2072895,0.01601326 8.7185884,-4.0017078 c -1.7454984,2.3720609 -1.7354408,5.6174519 -6e-7,8.035443 z" style="font-size:12px;fill-rule:evenodd;stroke-width:0.625;stroke-linejoin:round" id="path45132-31"/></marker><marker style="overflow:visible" id="DotM-0" refX="0" refY="0" orient="auto" inkscape:stockid="DotM"><path inkscape:connector-curvature="0" transform="matrix(0.4,0,0,0.4,2.96,0.4)" style="fill-rule:evenodd;stroke:#000000;stroke-width:1pt;marker-start:none;marker-end:none" d="m -2.5,-1 c 0,2.76 -2.24,5 -5,5 -2.76,0 -5,-2.24 -5,-5 0,-2.76 2.24,-5 5,-5 2.76,0 5,2.24 5,5 z" id="path14329-94"/></marker><marker style="overflow:visible" id="Arrow2Mend-6" refX="0" refY="0" orient="auto" inkscape:stockid="Arrow2Mend"><path inkscape:connector-curvature="0" transform="scale(-0.6,-0.6)" d="M 8.7185878,4.0337352 -2.2072895,0.01601326 8.7185884,-4.0017078 c -1.7454984,2.3720609 -1.7354408,5.6174519 -6e-7,8.035443 z" style="font-size:12px;fill-rule:evenodd;stroke-width:0.625;stroke-linejoin:round" id="path45132-8"/></marker><marker style="overflow:visible" id="DotM-8" refX="0" refY="0" orient="auto" inkscape:stockid="DotM"><path inkscape:connector-curvature="0" transform="matrix(0.4,0,0,0.4,2.96,0.4)" style="fill-rule:evenodd;stroke:#000000;stroke-width:1pt;marker-start:none;marker-end:none" d="m -2.5,-1 c 0,2.76 -2.24,5 -5,5 -2.76,0 -5,-2.24 -5,-5 0,-2.76 2.24,-5 5,-5 2.76,0 5,2.24 5,5 z" id="path14329-91"/></marker><clipPath clipPathUnits="userSpaceOnUse" id="clipPath3169-2"><rect style="fill:#f5f5f4;fill-opacity:1;stroke:#888a85;stroke-width:2;stroke-miterlimit:4;stroke-opacity:1;stroke-dasharray:none;stroke-dashoffset:0" id="rect3171-7" width="748.77557" height="428.80975" x="48.992397" y="105.34417"/></clipPath><clipPath id="clipPath22-7" clipPathUnits="userSpaceOnUse"><path id="path24-2" d="M 0,792 1224,792 1224,0 0,0 0,792 z" inkscape:connector-curvature="0"/></clipPath><clipPath clipPathUnits="userSpaceOnUse" id="clipPath6483-7"><rect style="fill:#ffffff;fill-opacity:1;stroke:none" id="rect6485-5" width="548" height="280" x="67.578148" y="187.65627"/></clipPath><clipPath id="clipPath10152" clipPathUnits="userSpaceOnUse"><rect y="754.14667" x="-37.134048" height="140.17392" width="718.58722" id="rect10154" style="fill:#555753;fill-opacity:1;stroke:#555753;stroke-width:1.83322382;stroke-miterlimit:4;stroke-opacity:1;stroke-dasharray:none;stroke-dashoffset:0"/></clipPath><marker style="overflow:visible" id="Arrow2Mend-0" refX="0" refY="0" orient="auto" inkscape:stockid="Arrow2Mend"><path inkscape:connector-curvature="0" transform="scale(-0.6,-0.6)" d="M 8.7185878,4.0337352 -2.2072895,0.01601326 8.7185884,-4.0017078 c -1.7454984,2.3720609 -1.7354408,5.6174519 -6e-7,8.035443 z" style="font-size:12px;fill-rule:evenodd;stroke-width:0.625;stroke-linejoin:round" id="path45132-982"/></marker><marker style="overflow:visible" id="DotM-2" refX="0" refY="0" orient="auto" inkscape:stockid="DotM"><path inkscape:connector-curvature="0" transform="matrix(0.4,0,0,0.4,2.96,0.4)" style="fill-rule:evenodd;stroke:#000000;stroke-width:1pt;marker-start:none;marker-end:none" d="m -2.5,-1 c 0,2.76 -2.24,5 -5,5 -2.76,0 -5,-2.24 -5,-5 0,-2.76 2.24,-5 5,-5 2.76,0 5,2.24 5,5 z" id="path14329-95"/></marker><marker style="overflow:visible" id="Arrow2Mend-2" refX="0" refY="0" orient="auto" inkscape:stockid="Arrow2Mend"><path inkscape:connector-curvature="0" transform="scale(-0.6,-0.6)" d="M 8.7185878,4.0337352 -2.2072895,0.01601326 8.7185884,-4.0017078 c -1.7454984,2.3720609 -1.7354408,5.6174519 -6e-7,8.035443 z" style="font-size:12px;fill-rule:evenodd;stroke-width:0.625;stroke-linejoin:round" id="path45132-98"/></marker><marker style="overflow:visible" id="DotM-5" refX="0" refY="0" orient="auto" inkscape:stockid="DotM"><path inkscape:connector-curvature="0" transform="matrix(0.4,0,0,0.4,2.96,0.4)" style="fill-rule:evenodd;stroke:#000000;stroke-width:1pt;marker-start:none;marker-end:none" d="m -2.5,-1 c 0,2.76 -2.24,5 -5,5 -2.76,0 -5,-2.24 -5,-5 0,-2.76 2.24,-5 5,-5 2.76,0 5,2.24 5,5 z" id="path14329-1"/></marker><marker style="overflow:visible" id="Arrow2Mend-75" refX="0" refY="0" orient="auto" inkscape:stockid="Arrow2Mend"><path inkscape:connector-curvature="0" transform="scale(-0.6,-0.6)" d="M 8.7185878,4.0337352 -2.2072895,0.01601326 8.7185884,-4.0017078 c -1.7454984,2.3720609 -1.7354408,5.6174519 -6e-7,8.035443 z" style="font-size:12px;fill-rule:evenodd;stroke-width:0.625;stroke-linejoin:round" id="path45132-9"/></marker><marker style="overflow:visible" id="DotM-466" refX="0" refY="0" orient="auto" inkscape:stockid="DotM"><path inkscape:connector-curvature="0" transform="matrix(0.4,0,0,0.4,2.96,0.4)" style="fill-rule:evenodd;stroke:#000000;stroke-width:1pt;marker-start:none;marker-end:none" d="m -2.5,-1 c 0,2.76 -2.24,5 -5,5 -2.76,0 -5,-2.24 -5,-5 0,-2.76 2.24,-5 5,-5 2.76,0 5,2.24 5,5 z" id="path14329-32"/></marker><marker style="overflow:visible" id="marker32938" refX="0" refY="0" orient="auto" inkscape:stockid="Arrow2Mend"><path inkscape:connector-curvature="0" transform="scale(-0.6,-0.6)" d="M 8.7185878,4.0337352 -2.2072895,0.01601326 8.7185884,-4.0017078 c -1.7454984,2.3720609 -1.7354408,5.6174519 -6e-7,8.035443 z" style="font-size:12px;fill-rule:evenodd;stroke-width:0.625;stroke-linejoin:round" id="path32940"/></marker><marker style="overflow:visible" id="marker32934" refX="0" refY="0" orient="auto" inkscape:stockid="DotM"><path inkscape:connector-curvature="0" transform="matrix(0.4,0,0,0.4,2.96,0.4)" style="fill-rule:evenodd;stroke:#000000;stroke-width:1pt;marker-start:none;marker-end:none" d="m -2.5,-1 c 0,2.76 -2.24,5 -5,5 -2.76,0 -5,-2.24 -5,-5 0,-2.76 2.24,-5 5,-5 2.76,0 5,2.24 5,5 z" id="path32936"/></marker><marker style="overflow:visible" id="Arrow2Mend-7" refX="0" refY="0" orient="auto" inkscape:stockid="Arrow2Mend"><path inkscape:connector-curvature="0" transform="scale(-0.6,-0.6)" d="M 8.7185878,4.0337352 -2.2072895,0.01601326 8.7185884,-4.0017078 c -1.7454984,2.3720609 -1.7354408,5.6174519 -6e-7,8.035443 z" style="font-size:12px;fill-rule:evenodd;stroke-width:0.625;stroke-linejoin:round" id="path45132-2"/></marker><marker style="overflow:visible" id="DotM-46" refX="0" refY="0" orient="auto" inkscape:stockid="DotM"><path inkscape:connector-curvature="0" transform="matrix(0.4,0,0,0.4,2.96,0.4)" style="fill-rule:evenodd;stroke:#000000;stroke-width:1pt;marker-start:none;marker-end:none" d="m -2.5,-1 c 0,2.76 -2.24,5 -5,5 -2.76,0 -5,-2.24 -5,-5 0,-2.76 2.24,-5 5,-5 2.76,0 5,2.24 5,5 z" id="path14329-9"/></marker><marker style="overflow:visible" id="Arrow2Mend-3" refX="0" refY="0" orient="auto" inkscape:stockid="Arrow2Mend"><path inkscape:connector-curvature="0" transform="scale(-0.6,-0.6)" d="M 8.7185878,4.0337352 -2.2072895,0.01601326 8.7185884,-4.0017078 c -1.7454984,2.3720609 -1.7354408,5.6174519 -6e-7,8.035443 z" style="font-size:12px;fill-rule:evenodd;stroke-width:0.625;stroke-linejoin:round" id="path45132-3"/></marker><marker style="overflow:visible" id="DotM-42" refX="0" refY="0" orient="auto" inkscape:stockid="DotM"><path inkscape:connector-curvature="0" transform="matrix(0.4,0,0,0.4,2.96,0.4)" style="fill-rule:evenodd;stroke:#000000;stroke-width:1pt;marker-start:none;marker-end:none" d="m -2.5,-1 c 0,2.76 -2.24,5 -5,5 -2.76,0 -5,-2.24 -5,-5 0,-2.76 2.24,-5 5,-5 2.76,0 5,2.24 5,5 z" id="path14329-3"/></marker><marker style="overflow:visible" id="Arrow2Mend-9" refX="0" refY="0" orient="auto" inkscape:stockid="Arrow2Mend"><path inkscape:connector-curvature="0" transform="scale(-0.6,-0.6)" d="M 8.7185878,4.0337352 -2.2072895,0.01601326 8.7185884,-4.0017078 c -1.7454984,2.3720609 -1.7354408,5.6174519 -6e-7,8.035443 z" style="font-size:12px;fill-rule:evenodd;stroke-width:0.625;stroke-linejoin:round" id="path45132-4"/></marker><marker style="overflow:visible" id="DotM-4" refX="0" refY="0" orient="auto" inkscape:stockid="DotM"><path inkscape:connector-curvature="0" transform="matrix(0.4,0,0,0.4,2.96,0.4)" style="fill-rule:evenodd;stroke:#000000;stroke-width:1pt;marker-start:none;marker-end:none" d="m -2.5,-1 c 0,2.76 -2.24,5 -5,5 -2.76,0 -5,-2.24 -5,-5 0,-2.76 2.24,-5 5,-5 2.76,0 5,2.24 5,5 z" id="path14329-8"/></marker><clipPath id="clipPath6483-5" clipPathUnits="userSpaceOnUse"><rect y="187.65627" x="67.578148" height="280" width="548" id="rect6485-2" style="fill:#ffffff;fill-opacity:1;stroke:none"/></clipPath><clipPath id="clipPath6483-1-7-3-0" clipPathUnits="userSpaceOnUse"><rect y="187.65627" x="67.578148" height="280" width="548" id="rect6485-6-4-5-6" style="fill:#ffffff;fill-opacity:1;stroke:none"/></clipPath><marker style="overflow:visible" id="Arrow2Lend-0" refX="0" refY="0" orient="auto" inkscape:stockid="Arrow2Lend"><path transform="matrix(-1.1,0,0,-1.1,-1.1,0)" d="M 8.7185878,4.0337352 -2.2072895,0.01601326 8.7185884,-4.0017078 c -1.7454984,2.3720609 -1.7354408,5.6174519 -6e-7,8.035443 z" style="font-size:12px;fill-rule:evenodd;stroke-width:0.625;stroke-linejoin:round" id="path45126-6" inkscape:connector-curvature="0"/></marker><clipPath id="clipPath6483-1-7-3-9" clipPathUnits="userSpaceOnUse"><rect y="187.65627" x="67.578148" height="280" width="548" id="rect6485-6-4-5-8" style="fill:#ffffff;fill-opacity:1;stroke:none"/></clipPath><clipPath id="clipPath6483-1-7-3" clipPathUnits="userSpaceOnUse"><rect y="187.65627" x="67.578148" height="280" width="548" id="rect6485-6-4-5" style="fill:#ffffff;fill-opacity:1;stroke:none"/></clipPath><clipPath id="clipPath6483-1-7" clipPathUnits="userSpaceOnUse"><rect y="187.65627" x="67.578148" height="280" width="548" id="rect6485-6-4" style="fill:#ffffff;fill-opacity:1;stroke:none"/></clipPath><clipPath id="clipPath6483-1" clipPathUnits="userSpaceOnUse"><rect y="187.65627" x="67.578148" height="280" width="548" id="rect6485-6" style="fill:#ffffff;fill-opacity:1;stroke:none"/></clipPath><clipPath id="clipPath6483" clipPathUnits="userSpaceOnUse"><rect y="187.65627" x="67.578148" height="280" width="548" id="rect6485" style="fill:#ffffff;fill-opacity:1;stroke:none"/></clipPath><clipPath clipPathUnits="userSpaceOnUse" id="clipPath22"><path inkscape:connector-curvature="0" d="M 0,792 1224,792 1224,0 0,0 0,792 z" id="path24"/></clipPath><clipPath id="clipPath3169" clipPathUnits="userSpaceOnUse"><rect y="105.34417" x="48.992397" height="428.80975" width="748.77557" id="rect3171" style="fill:#f5f5f4;fill-opacity:1;stroke:#888a85;stroke-width:2;stroke-miterlimit:4;stroke-opacity:1;stroke-dasharray:none;stroke-dashoffset:0"/></clipPath><marker style="overflow:visible" id="Arrow2Lend" refX="0" refY="0" orient="auto" inkscape:stockid="Arrow2Lend"><path inkscape:connector-curvature="0" transform="matrix(-1.1,0,0,-1.1,-1.1,0)" d="M 8.7185878,4.0337352 -2.2072895,0.01601326 8.7185884,-4.0017078 c -1.7454984,2.3720609 -1.7354408,5.6174519 -6e-7,8.035443 z" style="font-size:12px;fill-rule:evenodd;stroke-width:0.625;stroke-linejoin:round" id="path45126"/></marker><marker style="overflow:visible" id="Arrow2Mend" refX="0" refY="0" orient="auto" inkscape:stockid="Arrow2Mend"><path inkscape:connector-curvature="0" transform="scale(-0.6,-0.6)" d="M 8.7185878,4.0337352 -2.2072895,0.01601326 8.7185884,-4.0017078 c -1.7454984,2.3720609 -1.7354408,5.6174519 -6e-7,8.035443 z" style="font-size:12px;fill-rule:evenodd;stroke-width:0.625;stroke-linejoin:round" id="path45132"/></marker><marker style="overflow:visible" id="DotL" refX="0" refY="0" orient="auto" inkscape:stockid="DotL"><path inkscape:connector-curvature="0" transform="matrix(0.8,0,0,0.8,5.92,0.8)" style="fill-rule:evenodd;stroke:#000000;stroke-width:1pt;marker-start:none;marker-end:none" d="m -2.5,-1 c 0,2.76 -2.24,5 -5,5 -2.76,0 -5,-2.24 -5,-5 0,-2.76 2.24,-5 5,-5 2.76,0 5,2.24 5,5 z" id="path14326"/></marker><marker style="overflow:visible" id="DotM" refX="0" refY="0" orient="auto" inkscape:stockid="DotM"><path inkscape:connector-curvature="0" transform="matrix(0.4,0,0,0.4,2.96,0.4)" style="fill-rule:evenodd;stroke:#000000;stroke-width:1pt;marker-start:none;marker-end:none" d="m -2.5,-1 c 0,2.76 -2.24,5 -5,5 -2.76,0 -5,-2.24 -5,-5 0,-2.76 2.24,-5 5,-5 2.76,0 5,2.24 5,5 z" id="path14329"/></marker></defs><sodipodi:namedview pagecolor="#ffffff" bordercolor="#666666" borderopacity="1" objecttolerance="10" gridtolerance="10" guidetolerance="10" inkscape:pageopacity="0" inkscape:pageshadow="2" inkscape:window-width="1920" inkscape:window-height="1024" id="namedview3" showgrid="false" showguides="true" inkscape:guide-bbox="true" inkscape:zoom="5.6568542" inkscape:cx="-22.749311" inkscape:cy="-0.60738534" inkscape:window-x="0" inkscape:window-y="27" inkscape:window-maximized="1" inkscape:current-layer="Layer_1"/>
<path style="fill:#434343;fill-opacity:1;stroke:none" d="M 13.788295,1.3241379e-6 C 13.258441,1.3241379e-6 12.83188,0.42656132 12.83188,0.95641512 l 0,2.43088348 C 11.594732,3.6944164 10.403984,4.1887158 9.2851806,4.8617707 L 7.5716065,3.1481959 c -0.3746627,-0.3746629 -0.9802564,-0.3746629 -1.3549192,0 L 3.1083436,6.2565387 c -0.3746626,0.3746639 -0.3746626,0.980256 0,1.3549199 L 4.8219178,9.3250339 C 4.1541311,10.440569 3.6910851,11.644819 3.3872978,12.871732 l -2.43088435,0 C 0.42656041,12.871732 0,13.298292 0,13.828142 l 0,4.383563 c 0,0.529854 0.42656041,0.956414 0.95641345,0.956414 l 2.39103375,0 c 0.307067,1.238251 0.8008512,2.426955 1.4744706,3.546699 l -1.7135742,1.713575 c -0.3746626,0.374661 -0.3746626,0.980256 0,1.354921 l 3.1083437,3.108342 c 0.3746629,0.374662 0.9802565,0.374662 1.3549192,0 l 1.7135741,-1.713574 c 1.1236924,0.677719 2.3093344,1.12739 3.5466994,1.43462 l 0,2.430884 C 12.83188,31.57344 13.258441,32 13.788295,32 l 4.383563,0 c 0.52985,0 0.95641,-0.42656 0.95641,-0.956413 l 0,-2.430885 c 1.24001,-0.30559 2.425185,-0.761767 3.5467,-1.43462 l 1.713575,1.713574 c 0.374664,0.374662 0.980256,0.374662 1.35492,0 l 3.108343,-3.108342 c 0.374662,-0.374665 0.374662,-0.98026 0,-1.354921 l -1.713575,-1.713575 c 0.674452,-1.117718 1.166647,-2.315963 1.474471,-3.546698 l 2.430885,0 C 31.57344,19.168119 32,18.741559 32,18.211705 l 0,-4.383559 c 0,-0.529854 -0.42656,-0.956414 -0.956413,-0.956414 l -2.430885,0 C 28.307437,11.642049 27.805034,10.438056 27.138231,9.3250339 l 1.713575,-1.7135753 c 0.374662,-0.3746639 0.374662,-0.980256 0,-1.3549199 L 25.743463,3.1481959 c -0.374664,-0.3746629 -0.980256,-0.3746629 -1.35492,0 L 22.674968,4.8617707 C 21.555129,4.1896152 20.36061,3.6922426 19.128268,3.3872986 l 0,-2.43088348 c 0,-0.5298538 -0.42656,-0.9564137958621 -0.95641,-0.9564137958621 l -4.383563,0 z M 15.820672,9.9626406 c 1.549644,-0.041137 3.129994,0.4829094 4.343712,1.6338724 2.427433,2.301926 2.541027,6.140437 0.239103,8.567871 -2.296244,2.421441 -6.138424,2.526877 -8.567871,0.239103 C 9.4081833,18.101561 9.2945878,14.26305 11.596513,11.835616 12.747477,10.6219 14.271029,10.003767 15.820672,9.9626417 z" id="rect3381-0" inkscape:connector-curvature="0"/></svg>